<?xml version="1.0" encoding="UTF-8"?><svg id="Layer_1" xmlns="http://www.w3.org/2000/svg" viewBox="0 0 202.44 50.4"><defs><style>.cls-1{fill:#ef4136;}.cls-2{fill:#7292cb;}</style></defs><path class="cls-1" d="M0,.56H11.34V29.54h3.85l13.79-14.98h6.58l-15.47,16.59,12.74,13.72h4.55v4.69h-7.21l-14.98-15.82h-3.85v15.82H5.95V5.25H0V.56Z"/><path class="cls-1" d="M44.31,32.06c0-5.65,1.47-10.12,4.41-13.41,2.94-3.29,7.14-4.93,12.6-4.93,2.94,0,5.47,.48,7.59,1.43,2.12,.96,3.89,2.25,5.29,3.89,1.4,1.63,2.44,3.57,3.12,5.81,.68,2.24,1.01,4.64,1.01,7.21,0,2.8-.37,5.33-1.12,7.59-.75,2.26-1.84,4.19-3.29,5.78-1.45,1.59-3.23,2.81-5.35,3.67-2.12,.86-4.54,1.29-7.25,1.29-2.89,0-5.41-.48-7.56-1.43-2.15-.96-3.92-2.25-5.32-3.89-1.4-1.63-2.44-3.57-3.12-5.81-.68-2.24-1.01-4.64-1.01-7.21Zm5.81,0c0,1.63,.2,3.27,.59,4.9,.4,1.63,1.04,3.1,1.92,4.41,.88,1.31,2.03,2.36,3.45,3.15,1.42,.79,3.15,1.19,5.2,1.19,3.72,0,6.52-1.16,8.41-3.47,1.88-2.31,2.83-5.7,2.83-10.18,0-1.68-.2-3.33-.59-4.93-.4-1.61-1.05-3.07-1.95-4.38s-2.07-2.36-3.49-3.15c-1.42-.79-3.15-1.19-5.2-1.19-3.72,0-6.51,1.14-8.37,3.43-1.86,2.29-2.79,5.69-2.79,10.22Z"/><polygon class="cls-1" points="89.67 49.56 89.67 44.87 101.85 44.87 101.85 19.25 89.67 19.25 89.67 14.56 107.38 14.56 107.38 44.87 119.28 44.87 119.28 49.56 89.67 49.56"/><path class="cls-2" d="M99.89,4.62c0-1.26,.42-2.34,1.26-3.25s1.91-1.36,3.22-1.36,2.49,.45,3.4,1.36,1.36,2,1.36,3.25-.45,2.24-1.36,3.08c-.91,.84-2.04,1.26-3.4,1.26s-2.38-.42-3.22-1.26c-.84-.84-1.26-1.87-1.26-3.08Z"/><path class="cls-1" d="M128.31,32.06c0-5.65,1.47-10.12,4.41-13.41,2.94-3.29,7.14-4.93,12.6-4.93,2.94,0,5.47,.48,7.59,1.43,2.12,.96,3.89,2.25,5.29,3.89,1.4,1.63,2.44,3.57,3.12,5.81,.68,2.24,1.01,4.64,1.01,7.21,0,2.8-.37,5.33-1.12,7.59-.75,2.26-1.84,4.19-3.29,5.78-1.45,1.59-3.23,2.81-5.35,3.67-2.12,.86-4.54,1.29-7.25,1.29-2.89,0-5.41-.48-7.56-1.43-2.15-.96-3.92-2.25-5.32-3.89-1.4-1.63-2.44-3.57-3.12-5.81-.68-2.24-1.01-4.64-1.01-7.21Zm5.81,0c0,1.63,.2,3.27,.59,4.9,.4,1.63,1.04,3.1,1.92,4.41,.88,1.31,2.03,2.36,3.45,3.15,1.42,.79,3.15,1.19,5.2,1.19,3.72,0,6.52-1.16,8.41-3.47,1.88-2.31,2.83-5.7,2.83-10.18,0-1.68-.2-3.33-.59-4.93-.4-1.61-1.05-3.07-1.95-4.38s-2.07-2.36-3.49-3.15c-1.42-.79-3.15-1.19-5.2-1.19-3.72,0-6.51,1.14-8.37,3.43-1.86,2.29-2.79,5.69-2.79,10.22Z"/><path class="cls-1" d="M196.91,40.11c0-1.49-.58-2.65-1.74-3.46-1.16-.82-2.61-1.47-4.33-1.96s-3.59-.95-5.62-1.37c-2.03-.42-3.9-.98-5.62-1.68s-3.16-1.65-4.33-2.83c-1.16-1.19-1.74-2.86-1.74-5,0-1.77,.38-3.29,1.16-4.55,.77-1.26,1.79-2.3,3.04-3.12s2.73-1.42,4.41-1.82c1.68-.4,3.43-.59,5.25-.59,3.27,0,6.08,.41,8.43,1.22,2.36,.82,4.24,1.67,5.63,2.56l-2.23,4.41c-1.54-.84-3.2-1.64-4.99-2.42-1.79-.77-4.04-1.15-6.73-1.15-1.02,0-2.04,.1-3.04,.31s-1.91,.53-2.72,.95c-.81,.42-1.46,.97-1.95,1.64-.49,.68-.73,1.51-.73,2.49,0,1.21,.58,2.15,1.74,2.8,1.16,.65,2.61,1.2,4.33,1.65s3.59,.86,5.62,1.26c2.02,.4,3.9,.97,5.62,1.71,1.72,.75,3.16,1.75,4.33,3.01,1.16,1.26,1.75,2.96,1.75,5.11,0,3.22-1.27,5.88-3.82,7.98-2.54,2.1-6.36,3.15-11.44,3.15-1.54,0-3.06-.14-4.55-.42s-2.89-.65-4.2-1.12c-1.31-.47-2.5-.99-3.57-1.58-1.07-.58-1.96-1.18-2.66-1.78l2.79-4.55c.56,.56,1.3,1.13,2.23,1.72,.93,.58,1.95,1.11,3.07,1.57,1.12,.47,2.32,.84,3.6,1.12s2.57,.42,3.87,.42,2.43-.1,3.52-.31,2.06-.54,2.9-.98c.84-.44,1.5-1.03,1.99-1.75,.49-.72,.73-1.6,.73-2.62Z"/></svg>